<svg width="29" height="28" viewBox="0 0 29 28" fill="none" xmlns="http://www.w3.org/2000/svg">
<path fill-rule="evenodd" clip-rule="evenodd" d="M18.1564 9.39353L8.68284 18.0972C8.30885 18.4411 8.28395 19.0241 8.62739 19.3976C8.97125 19.7716 9.55426 19.7965 9.92779 19.4531L19.4731 10.6842C19.4908 10.8005 19.4945 10.9196 19.4852 11.0391C19.229 14.1935 18.8302 19.102 18.8302 19.102C18.789 19.6083 19.1663 20.0523 19.6727 20.0935C20.179 20.1347 20.6235 19.7569 20.6647 19.2506C20.6647 19.2506 21.0635 14.343 21.3201 11.1882C21.395 10.2616 21.0852 9.34536 20.4628 8.65485C19.84 7.96475 18.9611 7.5618 18.0318 7.54103L9.87044 7.35916C9.36287 7.34741 8.9408 7.75048 8.92947 8.2585C8.91858 8.76611 9.32123 9.18772 9.82926 9.19906L17.9906 9.38093C18.0461 9.38239 18.1015 9.38645 18.1564 9.39353Z" fill="white"/>
</svg>
