<svg width="39" height="39" viewBox="0 0 39 39" fill="none" xmlns="http://www.w3.org/2000/svg">
<g clip-path="url(#clip0_204_852)">
<path d="M22.5116 40.9938V36.2051C24.0253 36.1216 25.1714 35.8447 25.9488 35.3752C26.7269 34.9062 27.2734 34.1443 27.589 33.0906C27.904 32.037 28.0621 30.5292 28.0621 28.5675H22.5116V17.1436H33.8961V28.0043C33.8961 32.4904 32.9343 35.7773 31.0108 37.8638C29.0866 39.9502 26.2537 40.9938 22.5116 40.9938ZM5.32467 40.9938V36.2051C6.83835 36.1216 7.98391 35.8555 8.76193 35.4068C9.53995 34.9581 10.1026 34.1962 10.4492 33.1217C10.7959 32.0471 10.9695 30.5292 10.9695 28.5675H5.32467V17.1436H16.7719V28.0043C16.7719 32.4904 15.8154 35.7773 13.9026 37.8638C11.9892 39.9502 9.13006 40.9938 5.32467 40.9938Z" fill="black"/>
</g>
<defs>
<clipPath id="clip0_204_852">
<rect width="38.1852" height="38.1852" fill="white" transform="translate(0.551453 0.0380859)"/>
</clipPath>
</defs>
</svg>
