<svg width="39" height="38" viewBox="0 0 39 38" fill="none" xmlns="http://www.w3.org/2000/svg">
<path d="M19.5333 34.8332C28.2778 34.8332 35.3666 27.7443 35.3666 18.9998C35.3666 10.2553 28.2778 3.1665 19.5333 3.1665C10.7888 3.1665 3.69995 10.2553 3.69995 18.9998C3.69995 27.7443 10.7888 34.8332 19.5333 34.8332Z" fill="#0077B5"/>
<path fill-rule="evenodd" clip-rule="evenodd" d="M15.3966 11.3081C15.3966 12.2938 14.6461 13.0915 13.4725 13.0915C12.3445 13.0915 11.594 12.2938 11.6172 11.3081C11.594 10.2745 12.3445 9.5 13.495 9.5C14.6461 9.5 15.3742 10.2745 15.3966 11.3081ZM11.7116 25.9818V14.5003H15.2798V25.981L11.7116 25.9818Z" fill="white"/>
<path fill-rule="evenodd" clip-rule="evenodd" d="M18.1394 18.1639C18.1394 16.7319 18.0922 15.511 18.045 14.5013H21.1444L21.3092 16.0742H21.3796C21.8492 15.3462 23.0229 14.2437 24.9246 14.2437C27.272 14.2437 29.0329 15.7933 29.0329 19.1728V25.9827H25.4646V19.6199C25.4646 18.14 24.9486 17.131 23.6573 17.131C22.6709 17.131 22.0844 17.8119 21.85 18.4688C21.7556 18.704 21.7091 19.032 21.7091 19.3615V25.9827H18.1408V18.1639H18.1394Z" fill="white"/>
</svg>
