<svg width="30" height="30" viewBox="0 0 30 30" fill="none" xmlns="http://www.w3.org/2000/svg">
<g clip-path="url(#clip0_204_778)">
<path fill-rule="evenodd" clip-rule="evenodd" d="M18.6799 10.0018L8.89952 18.9874C8.51342 19.3424 8.48771 19.9442 8.84228 20.3299C9.19727 20.716 9.79917 20.7417 10.1848 20.3871L20.0393 11.3343C20.0576 11.4543 20.0614 11.5773 20.0517 11.7006C19.7873 14.9572 19.3755 20.0246 19.3755 20.0246C19.333 20.5474 19.7226 21.0058 20.2453 21.0483C20.7681 21.0909 21.2269 20.7008 21.2695 20.1781C21.2695 20.1781 21.6812 15.1116 21.9461 11.8545C22.0235 10.8979 21.7036 9.95203 21.0611 9.23916C20.4181 8.5267 19.5107 8.1107 18.5513 8.08926L10.1256 7.9015C9.60158 7.88937 9.16584 8.30549 9.15414 8.82997C9.1429 9.35402 9.5586 9.78929 10.0831 9.80099L18.5088 9.98875C18.5661 9.99026 18.6233 9.99445 18.6799 10.0018Z" fill="white"/>
</g>
<defs>
<clipPath id="clip0_204_778">
<rect width="20.2703" height="20.2703" fill="white" transform="translate(0.583984 14.1557) rotate(-42.5966)"/>
</clipPath>
</defs>
</svg>
