<svg width="34" height="34" viewBox="0 0 34 34" fill="none" xmlns="http://www.w3.org/2000/svg">
<path d="M11.3446 16.3118H4.76786C4.88005 9.7632 6.17015 8.68344 10.1947 6.29957C10.6574 6.01911 10.8117 5.43015 10.5312 4.95338C10.2648 4.49063 9.66182 4.33638 9.19907 4.61683C4.45936 7.42139 2.80467 9.13217 2.80467 17.2794V24.8377C2.80467 27.2356 4.75384 29.1707 7.13772 29.1707H11.3446C13.8126 29.1707 15.6776 27.3057 15.6776 24.8377V20.6308C15.6776 18.1768 13.8126 16.3118 11.3446 16.3118Z" fill="black"/>
<path d="M26.5153 16.3118H19.9386C20.0508 9.7632 21.3409 8.68344 25.3654 6.29957C25.8282 6.01911 25.9824 5.43015 25.702 4.95338C25.4215 4.49063 24.8326 4.33638 24.3558 4.61683C19.6161 7.42139 17.9614 9.13217 17.9614 17.2934V24.8517C17.9614 27.2496 19.9105 29.1847 22.2944 29.1847H26.5013C28.9693 29.1847 30.8343 27.3197 30.8343 24.8517V20.6448C30.8483 18.1768 28.9833 16.3118 26.5153 16.3118Z" fill="black"/>
</svg>
