<svg width="39" height="38" viewBox="0 0 39 38" fill="none" xmlns="http://www.w3.org/2000/svg">
<path fill-rule="evenodd" clip-rule="evenodd" d="M17.3403 5.17656L17.3287 35.4746C17.3287 36.671 18.2998 37.6436 19.4948 37.6436C20.6913 37.6436 21.6638 36.6725 21.6638 35.4775L21.6768 4.95113C21.9066 5.10575 22.119 5.28927 22.3112 5.49591C27.3717 10.9683 35.2456 19.4838 35.2456 19.4838C36.0578 20.3624 37.4291 20.4159 38.3077 19.6038C39.1862 18.7917 39.2397 17.4189 38.4276 16.5403C38.4276 16.5403 30.5551 8.02616 25.4946 2.55238C24.0076 0.945503 21.9253 0.0221291 19.7361 0.000453949C17.5469 -0.0197754 15.4473 0.861694 13.93 2.43967L0.605329 16.299C-0.224119 17.1602 -0.198109 18.5344 0.664576 19.3639C1.52726 20.1919 2.90004 20.1659 3.72949 19.3032L17.0541 5.44389C17.1452 5.34996 17.2405 5.26037 17.3403 5.17656Z" fill="white"/>
</svg>
