<svg width="39" height="38" viewBox="0 0 39 38" fill="none" xmlns="http://www.w3.org/2000/svg">
<path d="M19.5333 34.8332C28.2778 34.8332 35.3666 27.7443 35.3666 18.9998C35.3666 10.2553 28.2778 3.1665 19.5333 3.1665C10.7888 3.1665 3.69995 10.2553 3.69995 18.9998C3.69995 27.7443 10.7888 34.8332 19.5333 34.8332Z" fill="#3B5998"/>
<path fill-rule="evenodd" clip-rule="evenodd" d="M23.741 13.4248C23.2475 13.326 22.581 13.2523 22.1619 13.2523C21.0269 13.2523 20.9532 13.7458 20.9532 14.5354V15.9409H23.7904L23.5431 18.8523H20.9532V27.7082H17.4008V18.8523H15.575V15.9409H17.4008V14.14C17.4008 11.6732 18.5602 10.2915 21.471 10.2915C22.4824 10.2915 23.2226 10.4395 24.1846 10.6369L23.741 13.4248Z" fill="white"/>
</svg>
